<mxfile host="app.diagrams.net" agent="Mozilla/5.0 (Windows NT 10.0; Win64; x64) AppleWebKit/537.36 (KHTML, like Gecko) Chrome/140.0.0.0 Safari/537.36" version="28.2.1">
  <diagram name="Halaman-1" id="36EI4RlFwQjqCiNv4UQq">
    <mxGraphModel dx="1358" dy="740" grid="1" gridSize="10" guides="0" tooltips="1" connect="1" arrows="1" fold="1" page="1" pageScale="1" pageWidth="827" pageHeight="1169" math="0" shadow="0">
      <root>
        <mxCell id="0" />
        <mxCell id="1" parent="0" />
        <mxCell id="3WTr93dJOskc8-XUwEkE-12" value="" style="edgeStyle=orthogonalEdgeStyle;rounded=0;orthogonalLoop=1;jettySize=auto;html=1;" parent="1" source="3WTr93dJOskc8-XUwEkE-1" target="3WTr93dJOskc8-XUwEkE-11" edge="1">
          <mxGeometry relative="1" as="geometry" />
        </mxCell>
        <mxCell id="3WTr93dJOskc8-XUwEkE-1" value="mulai&lt;div&gt;&lt;br&gt;&lt;/div&gt;" style="strokeWidth=2;html=1;shape=mxgraph.flowchart.start_1;whiteSpace=wrap;" parent="1" vertex="1">
          <mxGeometry x="240" y="60" width="100" height="60" as="geometry" />
        </mxCell>
        <mxCell id="R_-PulKoE0dUVSBGmPGn-1" value="" style="edgeStyle=orthogonalEdgeStyle;rounded=0;orthogonalLoop=1;jettySize=auto;html=1;" edge="1" parent="1" source="3WTr93dJOskc8-XUwEkE-2" target="3WTr93dJOskc8-XUwEkE-14">
          <mxGeometry relative="1" as="geometry" />
        </mxCell>
        <mxCell id="R_-PulKoE0dUVSBGmPGn-9" value="yes&lt;div&gt;&lt;br&gt;&lt;/div&gt;" style="edgeLabel;html=1;align=center;verticalAlign=middle;resizable=0;points=[];" vertex="1" connectable="0" parent="R_-PulKoE0dUVSBGmPGn-1">
          <mxGeometry x="-0.0511" y="1" relative="1" as="geometry">
            <mxPoint as="offset" />
          </mxGeometry>
        </mxCell>
        <mxCell id="R_-PulKoE0dUVSBGmPGn-10" value="" style="edgeStyle=orthogonalEdgeStyle;rounded=0;orthogonalLoop=1;jettySize=auto;html=1;" edge="1" parent="1" source="3WTr93dJOskc8-XUwEkE-2" target="3WTr93dJOskc8-XUwEkE-3">
          <mxGeometry relative="1" as="geometry" />
        </mxCell>
        <mxCell id="R_-PulKoE0dUVSBGmPGn-18" value="no" style="edgeLabel;html=1;align=center;verticalAlign=middle;resizable=0;points=[];" vertex="1" connectable="0" parent="R_-PulKoE0dUVSBGmPGn-10">
          <mxGeometry x="-0.2042" y="-1" relative="1" as="geometry">
            <mxPoint as="offset" />
          </mxGeometry>
        </mxCell>
        <mxCell id="3WTr93dJOskc8-XUwEkE-2" value="pilih 1" style="strokeWidth=2;html=1;shape=mxgraph.flowchart.decision;whiteSpace=wrap;" parent="1" vertex="1">
          <mxGeometry x="50" y="300" width="100" height="100" as="geometry" />
        </mxCell>
        <mxCell id="R_-PulKoE0dUVSBGmPGn-2" value="" style="edgeStyle=orthogonalEdgeStyle;rounded=0;orthogonalLoop=1;jettySize=auto;html=1;" edge="1" parent="1" source="3WTr93dJOskc8-XUwEkE-3" target="3WTr93dJOskc8-XUwEkE-15">
          <mxGeometry relative="1" as="geometry" />
        </mxCell>
        <mxCell id="R_-PulKoE0dUVSBGmPGn-8" value="yes&lt;div&gt;&lt;br&gt;&lt;/div&gt;" style="edgeLabel;html=1;align=center;verticalAlign=middle;resizable=0;points=[];" vertex="1" connectable="0" parent="R_-PulKoE0dUVSBGmPGn-2">
          <mxGeometry x="-0.0511" relative="1" as="geometry">
            <mxPoint as="offset" />
          </mxGeometry>
        </mxCell>
        <mxCell id="R_-PulKoE0dUVSBGmPGn-11" value="" style="edgeStyle=orthogonalEdgeStyle;rounded=0;orthogonalLoop=1;jettySize=auto;html=1;" edge="1" parent="1" source="3WTr93dJOskc8-XUwEkE-3" target="3WTr93dJOskc8-XUwEkE-4">
          <mxGeometry relative="1" as="geometry" />
        </mxCell>
        <mxCell id="R_-PulKoE0dUVSBGmPGn-15" value="no" style="edgeLabel;html=1;align=center;verticalAlign=middle;resizable=0;points=[];" vertex="1" connectable="0" parent="R_-PulKoE0dUVSBGmPGn-11">
          <mxGeometry x="-0.2491" y="-2" relative="1" as="geometry">
            <mxPoint as="offset" />
          </mxGeometry>
        </mxCell>
        <mxCell id="3WTr93dJOskc8-XUwEkE-3" value="pilih 2" style="strokeWidth=2;html=1;shape=mxgraph.flowchart.decision;whiteSpace=wrap;" parent="1" vertex="1">
          <mxGeometry x="50" y="450" width="100" height="100" as="geometry" />
        </mxCell>
        <mxCell id="R_-PulKoE0dUVSBGmPGn-3" value="" style="edgeStyle=orthogonalEdgeStyle;rounded=0;orthogonalLoop=1;jettySize=auto;html=1;" edge="1" parent="1" source="3WTr93dJOskc8-XUwEkE-4" target="3WTr93dJOskc8-XUwEkE-17">
          <mxGeometry relative="1" as="geometry" />
        </mxCell>
        <mxCell id="R_-PulKoE0dUVSBGmPGn-7" value="yes&lt;div&gt;&lt;br&gt;&lt;/div&gt;" style="edgeLabel;html=1;align=center;verticalAlign=middle;resizable=0;points=[];" vertex="1" connectable="0" parent="R_-PulKoE0dUVSBGmPGn-3">
          <mxGeometry x="0.0934" y="2" relative="1" as="geometry">
            <mxPoint as="offset" />
          </mxGeometry>
        </mxCell>
        <mxCell id="R_-PulKoE0dUVSBGmPGn-12" value="" style="edgeStyle=orthogonalEdgeStyle;rounded=0;orthogonalLoop=1;jettySize=auto;html=1;" edge="1" parent="1" source="3WTr93dJOskc8-XUwEkE-4" target="3WTr93dJOskc8-XUwEkE-5">
          <mxGeometry relative="1" as="geometry" />
        </mxCell>
        <mxCell id="R_-PulKoE0dUVSBGmPGn-19" value="no" style="edgeLabel;html=1;align=center;verticalAlign=middle;resizable=0;points=[];" vertex="1" connectable="0" parent="R_-PulKoE0dUVSBGmPGn-12">
          <mxGeometry x="-0.0556" y="-4" relative="1" as="geometry">
            <mxPoint as="offset" />
          </mxGeometry>
        </mxCell>
        <mxCell id="3WTr93dJOskc8-XUwEkE-4" value="pilih 3" style="strokeWidth=2;html=1;shape=mxgraph.flowchart.decision;whiteSpace=wrap;" parent="1" vertex="1">
          <mxGeometry x="50" y="610" width="100" height="100" as="geometry" />
        </mxCell>
        <mxCell id="R_-PulKoE0dUVSBGmPGn-4" value="" style="edgeStyle=orthogonalEdgeStyle;rounded=0;orthogonalLoop=1;jettySize=auto;html=1;" edge="1" parent="1" source="3WTr93dJOskc8-XUwEkE-5" target="3WTr93dJOskc8-XUwEkE-18">
          <mxGeometry relative="1" as="geometry" />
        </mxCell>
        <mxCell id="R_-PulKoE0dUVSBGmPGn-6" value="Yes&lt;div&gt;&lt;br&gt;&lt;/div&gt;" style="edgeLabel;html=1;align=center;verticalAlign=middle;resizable=0;points=[];" vertex="1" connectable="0" parent="R_-PulKoE0dUVSBGmPGn-4">
          <mxGeometry x="-0.1697" y="-3" relative="1" as="geometry">
            <mxPoint as="offset" />
          </mxGeometry>
        </mxCell>
        <mxCell id="R_-PulKoE0dUVSBGmPGn-13" value="" style="edgeStyle=orthogonalEdgeStyle;rounded=0;orthogonalLoop=1;jettySize=auto;html=1;" edge="1" parent="1" source="3WTr93dJOskc8-XUwEkE-5" target="3WTr93dJOskc8-XUwEkE-7">
          <mxGeometry relative="1" as="geometry" />
        </mxCell>
        <mxCell id="R_-PulKoE0dUVSBGmPGn-20" value="no" style="edgeLabel;html=1;align=center;verticalAlign=middle;resizable=0;points=[];" vertex="1" connectable="0" parent="R_-PulKoE0dUVSBGmPGn-13">
          <mxGeometry x="-0.3719" y="2" relative="1" as="geometry">
            <mxPoint as="offset" />
          </mxGeometry>
        </mxCell>
        <mxCell id="3WTr93dJOskc8-XUwEkE-5" value="pilih 4" style="strokeWidth=2;html=1;shape=mxgraph.flowchart.decision;whiteSpace=wrap;" parent="1" vertex="1">
          <mxGeometry x="50" y="780" width="100" height="100" as="geometry" />
        </mxCell>
        <mxCell id="3WTr93dJOskc8-XUwEkE-9" style="edgeStyle=orthogonalEdgeStyle;rounded=0;orthogonalLoop=1;jettySize=auto;html=1;" parent="1" source="3WTr93dJOskc8-XUwEkE-6" target="3WTr93dJOskc8-XUwEkE-2" edge="1">
          <mxGeometry relative="1" as="geometry" />
        </mxCell>
        <mxCell id="3WTr93dJOskc8-XUwEkE-6" value="input piihan&lt;br&gt;1-5" style="shape=parallelogram;html=1;strokeWidth=2;perimeter=parallelogramPerimeter;whiteSpace=wrap;rounded=1;arcSize=12;size=0.23;" parent="1" vertex="1">
          <mxGeometry x="50" y="160" width="100" height="60" as="geometry" />
        </mxCell>
        <mxCell id="R_-PulKoE0dUVSBGmPGn-46" value="" style="edgeStyle=orthogonalEdgeStyle;rounded=0;orthogonalLoop=1;jettySize=auto;html=1;" edge="1" parent="1" source="3WTr93dJOskc8-XUwEkE-7" target="R_-PulKoE0dUVSBGmPGn-21">
          <mxGeometry relative="1" as="geometry" />
        </mxCell>
        <mxCell id="3WTr93dJOskc8-XUwEkE-7" value="pilih 5&lt;div&gt;&lt;br&gt;&lt;/div&gt;" style="strokeWidth=2;html=1;shape=mxgraph.flowchart.decision;whiteSpace=wrap;" parent="1" vertex="1">
          <mxGeometry x="50" y="950" width="100" height="100" as="geometry" />
        </mxCell>
        <mxCell id="3WTr93dJOskc8-XUwEkE-13" value="" style="edgeStyle=orthogonalEdgeStyle;rounded=0;orthogonalLoop=1;jettySize=auto;html=1;" parent="1" source="3WTr93dJOskc8-XUwEkE-11" target="3WTr93dJOskc8-XUwEkE-6" edge="1">
          <mxGeometry relative="1" as="geometry" />
        </mxCell>
        <mxCell id="3WTr93dJOskc8-XUwEkE-11" value="tampilkan data" style="shape=parallelogram;html=1;strokeWidth=2;perimeter=parallelogramPerimeter;whiteSpace=wrap;rounded=1;arcSize=12;size=0.23;" parent="1" vertex="1">
          <mxGeometry x="50" y="60" width="100" height="60" as="geometry" />
        </mxCell>
        <mxCell id="R_-PulKoE0dUVSBGmPGn-27" style="rounded=0;orthogonalLoop=1;jettySize=auto;html=1;entryX=0;entryY=0.5;entryDx=0;entryDy=0;" edge="1" parent="1" source="3WTr93dJOskc8-XUwEkE-14" target="R_-PulKoE0dUVSBGmPGn-24">
          <mxGeometry relative="1" as="geometry" />
        </mxCell>
        <mxCell id="3WTr93dJOskc8-XUwEkE-14" value="input judul,penulis,tahun" style="rounded=1;whiteSpace=wrap;html=1;absoluteArcSize=1;arcSize=14;strokeWidth=2;" parent="1" vertex="1">
          <mxGeometry x="220" y="320" width="120" height="60" as="geometry" />
        </mxCell>
        <mxCell id="R_-PulKoE0dUVSBGmPGn-29" style="rounded=0;orthogonalLoop=1;jettySize=auto;html=1;entryX=0;entryY=0.5;entryDx=0;entryDy=0;" edge="1" parent="1" source="3WTr93dJOskc8-XUwEkE-15" target="R_-PulKoE0dUVSBGmPGn-24">
          <mxGeometry relative="1" as="geometry">
            <mxPoint x="540" y="630" as="targetPoint" />
          </mxGeometry>
        </mxCell>
        <mxCell id="3WTr93dJOskc8-XUwEkE-15" value="tampilkan koleksi buku" style="rounded=1;whiteSpace=wrap;html=1;absoluteArcSize=1;arcSize=14;strokeWidth=2;" parent="1" vertex="1">
          <mxGeometry x="220" y="470" width="120" height="60" as="geometry" />
        </mxCell>
        <mxCell id="R_-PulKoE0dUVSBGmPGn-39" value="" style="edgeStyle=orthogonalEdgeStyle;rounded=0;orthogonalLoop=1;jettySize=auto;html=1;" edge="1" parent="1" source="3WTr93dJOskc8-XUwEkE-17" target="R_-PulKoE0dUVSBGmPGn-38">
          <mxGeometry relative="1" as="geometry" />
        </mxCell>
        <mxCell id="3WTr93dJOskc8-XUwEkE-17" value="tampilkan koleksi buku" style="rounded=1;whiteSpace=wrap;html=1;absoluteArcSize=1;arcSize=14;strokeWidth=2;" parent="1" vertex="1">
          <mxGeometry x="230" y="630" width="120" height="60" as="geometry" />
        </mxCell>
        <mxCell id="R_-PulKoE0dUVSBGmPGn-42" value="" style="edgeStyle=orthogonalEdgeStyle;rounded=0;orthogonalLoop=1;jettySize=auto;html=1;" edge="1" parent="1" source="3WTr93dJOskc8-XUwEkE-18" target="R_-PulKoE0dUVSBGmPGn-41">
          <mxGeometry relative="1" as="geometry" />
        </mxCell>
        <mxCell id="3WTr93dJOskc8-XUwEkE-18" value="tampilkan koleksi buku" style="rounded=1;whiteSpace=wrap;html=1;absoluteArcSize=1;arcSize=14;strokeWidth=2;" parent="1" vertex="1">
          <mxGeometry x="230" y="800" width="120" height="60" as="geometry" />
        </mxCell>
        <mxCell id="R_-PulKoE0dUVSBGmPGn-21" value="&lt;div&gt;tampilkan pesan kluar&lt;/div&gt;" style="strokeWidth=2;html=1;shape=mxgraph.flowchart.start_1;whiteSpace=wrap;" vertex="1" parent="1">
          <mxGeometry x="50" y="1080" width="100" height="60" as="geometry" />
        </mxCell>
        <mxCell id="R_-PulKoE0dUVSBGmPGn-35" style="edgeStyle=orthogonalEdgeStyle;rounded=0;orthogonalLoop=1;jettySize=auto;html=1;" edge="1" parent="1" source="R_-PulKoE0dUVSBGmPGn-24">
          <mxGeometry relative="1" as="geometry">
            <mxPoint x="140" y="190" as="targetPoint" />
            <Array as="points">
              <mxPoint x="580" y="190" />
              <mxPoint x="144" y="190" />
            </Array>
          </mxGeometry>
        </mxCell>
        <mxCell id="R_-PulKoE0dUVSBGmPGn-24" value="looping&lt;div&gt;&lt;br&gt;&lt;/div&gt;" style="shape=parallelogram;html=1;strokeWidth=2;perimeter=parallelogramPerimeter;whiteSpace=wrap;rounded=1;arcSize=12;size=0.23;" vertex="1" parent="1">
          <mxGeometry x="620" y="610" width="100" height="60" as="geometry" />
        </mxCell>
        <mxCell id="R_-PulKoE0dUVSBGmPGn-40" style="rounded=0;orthogonalLoop=1;jettySize=auto;html=1;" edge="1" parent="1" source="R_-PulKoE0dUVSBGmPGn-38">
          <mxGeometry relative="1" as="geometry">
            <mxPoint x="630" y="640" as="targetPoint" />
          </mxGeometry>
        </mxCell>
        <mxCell id="R_-PulKoE0dUVSBGmPGn-38" value="input nomor buku,&lt;div&gt;judul/penulis/tahun&lt;/div&gt;" style="whiteSpace=wrap;html=1;rounded=1;absoluteArcSize=1;arcSize=14;strokeWidth=2;" vertex="1" parent="1">
          <mxGeometry x="380" y="630" width="110" height="60" as="geometry" />
        </mxCell>
        <mxCell id="R_-PulKoE0dUVSBGmPGn-41" value="input nomor buku,&lt;div&gt;&lt;br&gt;&lt;/div&gt;" style="whiteSpace=wrap;html=1;rounded=1;absoluteArcSize=1;arcSize=14;strokeWidth=2;" vertex="1" parent="1">
          <mxGeometry x="410" y="800" width="110" height="60" as="geometry" />
        </mxCell>
        <mxCell id="R_-PulKoE0dUVSBGmPGn-44" style="rounded=0;orthogonalLoop=1;jettySize=auto;html=1;entryX=0.057;entryY=0.62;entryDx=0;entryDy=0;entryPerimeter=0;" edge="1" parent="1" source="R_-PulKoE0dUVSBGmPGn-41" target="R_-PulKoE0dUVSBGmPGn-24">
          <mxGeometry relative="1" as="geometry" />
        </mxCell>
      </root>
    </mxGraphModel>
  </diagram>
</mxfile>
